<svg xmlns="http://www.w3.org/2000/svg" viewBox="0 0 1400 1400">
  <rect width="1400" height="1400" rx="300" fill="#fffdeb"/>
  <g transform="translate(76.34 244.95)" fill="#801c1c" fill-rule="evenodd">
    <path d="M801.89,564.7s-.05.07-.1.07c-.04,0-.08-.04-.07-.09.81-3.67,1.75-7.33,2.85-10.99,6.38-21.26,17.13-40.01,30.98-55.58,11.78-13.25,25.81-24.19,41.29-32.41,33.19-17.61,73.08-22.68,111.9-11.03,6.7,2.01,13.15,4.45,19.33,7.29.17.08.34.15.51.23,2.94,1.27,5.77,2.69,8.48,4.27,30.75,17.91,46.45,55.12,35.79,90.65-9.65,32.17-38.12,53.6-69.79,55.89-9.3.67-18.87-.3-28.32-3.14-.26-.08-.52-.16-.79-.24-7.81-2.43-14.97-5.97-21.37-10.38-17.43-10.67-31.64-25.35-41.75-42.42-.74-1.25-1.46-2.51-2.15-3.78-.07-.13-.14-.25-.22-.37-5.98-9.37-15.23-16.73-26.71-20.17-25.42-7.63-52.24,6.79-59.85,32.18v.02Z"/>
    <path d="M1077.92,620.41c1.56-.52,3.13-1.01,4.71-1.46,8.46-2.41,17.33-3.79,26.48-4,5.69-.13,11.28.2,16.76.95,15.67,2.15,30.35,7.77,43.3,16.13,31.18,20.1,52.38,56.03,53.32,97.4-.78-34.22-23.49-62.54-53.56-70.26-5.79-1.49-11.85-2.21-18.08-2.07-6.03.14-11.86,1.08-17.41,2.73-24.59,7.3-43.58,28.44-49.18,54.82-.43,2.02-.78,4.08-1.05,6.16-2.22,12.2-5.25,24.1-9.03,35.64-7.77,23.75-18.72,45.97-32.31,66.07-1.55,2.29-3.13,4.55-4.74,6.78-11.14,14.94-23.93,28.44-38.1,40.2-64.38,53.19-156.97,54.86-223.22,4.01-55.31-42.39-91.96-110.6-93.73-188.19-2.82-123.33,143.33-240.69,195.94-242.37,1.3-.04,5.33.6,7.59.88-63.03,13.38-109.82,73.01-108.21,143.33,1.81,78.93,63.9,141.62,138.58,139.91,37.75-.86,71.53-18.02,95.48-44.97,7.41-8.34,13.88-17.62,19.23-27.64,2.19-4.17,5.09-7.92,8.56-11.11,11.14-10.2,24.24-18.08,38.65-22.93Z"/>
    <path d="M1063.32,838.16c-.43-11,1.39-19.23,7.2-38.67,11.42-38.22,24.11-72.38,24.11-72.38h0c13.41-35.42,38.15-57.8,66.89-53.77,25.34,3.54,43.8,25.64,44.91,51.6.2,4.76-.17,8.31-.52,10.64-8.88,59.23-32.53,92.61-18.63,117.37,6.06,10.8,16.78,15.55,19.33,16.68,17.77,7.87,35.52.87,40.18-1.14-42.05,37.85-95.38,51.31-136.85,32.98-18.13-8.02-30.99-20.78-39.76-32.58-2.91-7.02-6.36-17.63-6.87-30.73Z"/>
    <path d="M658.57,445.61c.24-.5.5-.98.79-1.45-.26.49-.52.97-.79,1.45ZM682.39,435.81c1,.35,1.96.78,2.87,1.29-.93-.47-1.89-.9-2.87-1.29Z"/>
    <path d="M803.02,910.06c-83.35-.01-166.7-.03-250.06-.04,11.91-1.43,52.71-7.81,86.67-42.79,31.17-32.1,37.79-68.93,39.48-81.39,1.71,12.2,8.61,50.18,41.27,82.88,32.57,32.61,70.42,39.6,82.63,41.34Z"/>
    <path d="M659.16,491.72c-13.58-16.34,7.74-62.89,8.3-66.51,11.3-72.75-83.31-65.09-85.82-123.82-4.1-95.9,263.73-95,168.01,94.57-26.72,52.91-59.03,54-66.12,57.71-16.79,8.8-25.32,33.47-24.37,38.04Z"/>
    <path d="M507.37,741.66c3.2-3,99.13-70.87,67.96-172.93-10.47-34.27-7.77-47.36-.05-68.43,8.15-22.25,39.25-46.76,48.94-65.07,1.54-2.91,13.12-24.79,10.22-40.58,20.51,31.88-14.75,89.29,7.05,131.39,12.26,23.66,35.4,37.17,37.75,109.44,11.25,346.23-381.04,358.6-432.41,68.11-31.96-180.75,176.26-182.9,200.17-107.93,5.44,17.05-11.61,76.08-5.31,112.29,7.71,44.33,48.01,46.9,65.68,33.7Z"/>
    <path d="M262.67,184.1c46.39,0,90.89,18.43,123.69,51.24,32.81,32.8,51.23,77.3,51.23,123.69v75.95c0,26.25-10.43,51.43-28.99,69.99-18.56,18.56-43.74,28.99-69.99,28.99h0c-26.25,0-51.43-10.43-69.99-28.99-18.56-18.56-28.99-43.74-28.99-69.99v-250.88h23.04Z"/>
    <path d="M2.36,164.99v-19.68h.11C5.78,64.59,84.92,0,182.07,0h156.54c-97.57,15.05-133.68,104.1-143.45,136.16-3.7,12.13-14.83,25.19-48.78,28.83H2.36Z"/>
    <path d="M238.19,164.99C238.19,73.87,318.65,0,417.9,0h103.02s406.58,0,406.58,0c-31.62,13.6-76.94,43.85-99.09,92.72-22.28,49.14-35.33,50.16-45.78,57.17-21.58,14.49-46.57,16.57-67.07,15.1H238.19Z"/>
  </g>
</svg>
